<svg width="14" height="14" viewBox="0 0 14 14" fill="none" xmlns="http://www.w3.org/2000/svg">
<path d="M12.3438 7.82812H13.6562V11.8281C13.6562 12.1823 13.5208 12.4948 13.25 12.7656C13 13.0365 12.6979 13.1719 12.3438 13.1719C12.3438 13.3594 12.2708 13.5156 12.125 13.6406C12 13.7656 11.8438 13.8281 11.6562 13.8281H2.34375C2.15625 13.8281 1.98958 13.7656 1.84375 13.6406C1.71875 13.5156 1.65625 13.3594 1.65625 13.1719C1.30208 13.1719 0.989583 13.0365 0.71875 12.7656C0.46875 12.4948 0.34375 12.1823 0.34375 11.8281V7.82812H2.34375V7.32812C2.34375 6.93229 2.48958 6.58854 2.78125 6.29688C3.09375 5.98438 3.44792 5.82812 3.84375 5.82812C4.26042 5.82812 4.63542 5.99479 4.96875 6.32812L5.875 7.35938C6 7.50521 6.1875 7.66146 6.4375 7.82812H11V2.39062C11 2.24479 10.9479 2.11979 10.8438 2.01562C10.7396 1.89062 10.6042 1.82812 10.4375 1.82812C10.2917 1.82812 10.1667 1.88021 10.0625 1.98438L9.21875 2.82812C9.26042 2.99479 9.28125 3.10938 9.28125 3.17188C9.28125 3.40104 9.20833 3.64062 9.0625 3.89062L7.21875 2.04688C7.46875 1.90104 7.70833 1.82812 7.9375 1.82812C8.04167 1.82812 8.15625 1.84896 8.28125 1.89062L9.125 1.04688C9.47917 0.692708 9.91667 0.515625 10.4375 0.515625C10.9583 0.515625 11.4062 0.703125 11.7812 1.07812C12.1562 1.43229 12.3438 1.86979 12.3438 2.39062V7.82812ZM2.71875 4.79688C2.46875 4.52604 2.34375 4.20312 2.34375 3.82812C2.34375 3.45312 2.46875 3.14062 2.71875 2.89062C2.96875 2.64062 3.28125 2.51562 3.65625 2.51562C4.03125 2.51562 4.34375 2.64062 4.59375 2.89062C4.86458 3.14062 5 3.45312 5 3.82812C5 4.20312 4.86458 4.52604 4.59375 4.79688C4.34375 5.04688 4.03125 5.17188 3.65625 5.17188C3.28125 5.17188 2.96875 5.04688 2.71875 4.79688Z" fill="#65665C"/>
</svg>
