<svg width="14" height="10" viewBox="0 0 14 10" fill="none" xmlns="http://www.w3.org/2000/svg">
<path d="M13 4.35938V2.51562C13 2.14062 12.9062 1.80729 12.7188 1.51562C12.5521 1.20312 12.3125 0.963542 12 0.796875C11.7083 0.609375 11.375 0.515625 11 0.515625H8.34375C8.07292 0.515625 7.82292 0.567708 7.59375 0.671875C7.36458 0.755208 7.16667 0.869792 7 1.01562C6.83333 0.869792 6.63542 0.755208 6.40625 0.671875C6.17708 0.567708 5.92708 0.515625 5.65625 0.515625H3C2.625 0.515625 2.28125 0.609375 1.96875 0.796875C1.67708 0.963542 1.4375 1.20312 1.25 1.51562C1.08333 1.80729 1 2.14062 1 2.51562V4.35938C0.791667 4.54688 0.625 4.76562 0.5 5.01562C0.395833 5.26562 0.34375 5.53646 0.34375 5.82812V9.82812H1.65625V8.51562H12.3438V9.82812H13.6562V5.82812C13.6562 5.53646 13.5938 5.26562 13.4688 5.01562C13.3646 4.76562 13.2083 4.54688 13 4.35938ZM8.34375 1.82812H11C11.1875 1.82812 11.3438 1.90104 11.4688 2.04688C11.5938 2.17188 11.6562 2.32812 11.6562 2.51562V3.82812H7.65625V2.51562C7.65625 2.32812 7.71875 2.17188 7.84375 2.04688C7.98958 1.90104 8.15625 1.82812 8.34375 1.82812ZM2.34375 2.51562C2.34375 2.32812 2.40625 2.17188 2.53125 2.04688C2.65625 1.90104 2.8125 1.82812 3 1.82812H5.65625C5.84375 1.82812 6 1.90104 6.125 2.04688C6.27083 2.17188 6.34375 2.32812 6.34375 2.51562V3.82812H2.34375V2.51562ZM1.65625 7.17188V5.82812C1.65625 5.66146 1.71875 5.51562 1.84375 5.39062C1.98958 5.24479 2.15625 5.17188 2.34375 5.17188H11.6562C11.8438 5.17188 12 5.24479 12.125 5.39062C12.2708 5.51562 12.3438 5.66146 12.3438 5.82812V7.17188H1.65625Z" fill="#65665C"/>
</svg>
