<svg width="10" height="14" viewBox="0 0 10 14" fill="none" xmlns="http://www.w3.org/2000/svg">
<path d="M3.8125 6.35938C4.14583 6.67188 4.54167 6.82812 5 6.82812C5.45833 6.82812 5.84375 6.67188 6.15625 6.35938C6.48958 6.02604 6.65625 5.63021 6.65625 5.17188C6.65625 4.71354 6.48958 4.32812 6.15625 4.01562C5.84375 3.68229 5.45833 3.51562 5 3.51562C4.54167 3.51562 4.14583 3.68229 3.8125 4.01562C3.5 4.32812 3.34375 4.71354 3.34375 5.17188C3.34375 5.63021 3.5 6.02604 3.8125 6.35938ZM1.6875 1.89062C2.60417 0.973958 3.70833 0.515625 5 0.515625C6.29167 0.515625 7.38542 0.973958 8.28125 1.89062C9.19792 2.78646 9.65625 3.88021 9.65625 5.17188C9.65625 5.81771 9.48958 6.55729 9.15625 7.39062C8.84375 8.22396 8.45833 9.00521 8 9.73438C7.54167 10.4635 7.08333 11.151 6.625 11.7969C6.1875 12.4219 5.8125 12.9219 5.5 13.2969L5 13.8281C4.875 13.6823 4.70833 13.4948 4.5 13.2656C4.29167 13.0156 3.91667 12.5365 3.375 11.8281C2.83333 11.099 2.35417 10.401 1.9375 9.73438C1.54167 9.04688 1.17708 8.27604 0.84375 7.42188C0.510417 6.56771 0.34375 5.81771 0.34375 5.17188C0.34375 3.88021 0.791667 2.78646 1.6875 1.89062Z" fill="#65665C"/>
</svg>
