<svg width="20" height="21" viewBox="0 0 20 21" fill="none" xmlns="http://www.w3.org/2000/svg">
<path d="M9.07088 0.785196C9.41462 -0.0742331 10.5854 -0.0742321 10.9291 0.785199L12.9579 5.85771C13.1029 6.22002 13.4306 6.46758 13.8067 6.49894L19.0727 6.93797C19.9649 7.01235 20.3267 8.17023 19.6469 8.77578L15.6348 12.3498C15.3482 12.605 15.223 13.0057 15.3106 13.3873L16.5363 18.7311C16.744 19.6365 15.7969 20.3522 15.033 19.867L10.5245 17.0034C10.2025 16.7987 9.7975 16.7987 9.47548 17.0034L4.96699 19.867C4.20311 20.3522 3.25596 19.6365 3.46363 18.7311L4.68942 13.3873C4.77698 13.0057 4.65182 12.605 4.36526 12.3498L0.353062 8.77578C-0.326718 8.17023 0.035068 7.01235 0.927291 6.93797L6.19336 6.49894C6.5695 6.46758 6.89716 6.22002 7.04207 5.85771L9.07088 0.785196Z" fill="#CF6F49"/>
</svg>
